<svg width="116" height="44" viewBox="0 0 116 44" fill="none" xmlns="http://www.w3.org/2000/svg">
<path d="M54.2 29C54.0667 29 53.9533 28.96 53.86 28.88C53.78 28.7867 53.74 28.6733 53.74 28.54V15.48C53.74 15.3333 53.78 15.22 53.86 15.14C53.9533 15.0467 54.0667 15 54.2 15H59.68C61.1067 15 62.18 15.34 62.9 16.02C63.62 16.7 63.98 17.5933 63.98 18.7C63.98 19.4467 63.8067 20.0667 63.46 20.56C63.1267 21.0533 62.7267 21.4133 62.26 21.64C62.82 21.92 63.2933 22.3533 63.68 22.94C64.0667 23.5267 64.26 24.2 64.26 24.96C64.26 25.7067 64.0867 26.3867 63.74 27C63.4067 27.6133 62.9067 28.1 62.24 28.46C61.5733 28.82 60.7733 29 59.84 29H54.2ZM59.38 20.92C60.22 20.92 60.86 20.7267 61.3 20.34C61.7533 19.9533 61.98 19.4133 61.98 18.72C61.98 18.04 61.76 17.52 61.32 17.16C60.88 16.8 60.2333 16.62 59.38 16.62H55.7V20.92H59.38ZM59.58 27.38C60.42 27.38 61.0733 27.1533 61.54 26.7C62.02 26.2467 62.26 25.6667 62.26 24.96C62.26 24.2267 62.02 23.64 61.54 23.2C61.0733 22.7467 60.42 22.52 59.58 22.52H55.7V27.38H59.58ZM70.7194 29.2C69.4527 29.2 68.4727 28.7933 67.7794 27.98C67.086 27.1533 66.7394 26.06 66.7394 24.7V19.06C66.7394 18.9267 66.7794 18.82 66.8594 18.74C66.9527 18.6467 67.066 18.6 67.1994 18.6H68.1994C68.3327 18.6 68.4394 18.6467 68.5194 18.74C68.6127 18.82 68.6594 18.9267 68.6594 19.06V24.6C68.6594 26.5867 69.526 27.58 71.2594 27.58C72.0994 27.58 72.766 27.32 73.2594 26.8C73.7527 26.2667 73.9994 25.5333 73.9994 24.6V19.06C73.9994 18.9267 74.0394 18.82 74.1194 18.74C74.2127 18.6467 74.326 18.6 74.4594 18.6H75.4594C75.5927 18.6 75.6994 18.6467 75.7794 18.74C75.8594 18.82 75.8994 18.9267 75.8994 19.06V28.54C75.8994 28.6733 75.8594 28.7867 75.7794 28.88C75.6994 28.96 75.5927 29 75.4594 29H74.5194C74.386 29 74.2727 28.96 74.1794 28.88C74.0994 28.7867 74.0594 28.6733 74.0594 28.54V27.66C73.686 28.1667 73.2327 28.5533 72.6994 28.82C72.166 29.0733 71.506 29.2 70.7194 29.2ZM79.3306 29C79.1973 29 79.084 28.96 78.9906 28.88C78.9106 28.7867 78.8706 28.6733 78.8706 28.54V19.08C78.8706 18.9467 78.9106 18.8333 78.9906 18.74C79.084 18.6467 79.1973 18.6 79.3306 18.6H80.2506C80.384 18.6 80.4973 18.6467 80.5906 18.74C80.684 18.8333 80.7306 18.9467 80.7306 19.08V19.96C81.2773 19.0533 82.2106 18.6 83.5306 18.6H84.3106C84.444 18.6 84.5506 18.6467 84.6306 18.74C84.724 18.82 84.7706 18.9267 84.7706 19.06V19.88C84.7706 20.0133 84.724 20.12 84.6306 20.2C84.5506 20.28 84.444 20.32 84.3106 20.32H83.1106C82.3906 20.32 81.824 20.5333 81.4106 20.96C80.9973 21.3733 80.7906 21.94 80.7906 22.66V28.54C80.7906 28.6733 80.744 28.7867 80.6506 28.88C80.5573 28.96 80.444 29 80.3106 29H79.3306ZM90.5134 33.4C89.4201 33.4 88.5401 33.2133 87.8734 32.84C87.2068 32.48 86.7334 32.0667 86.4534 31.6C86.1734 31.1333 86.0201 30.7133 85.9934 30.34C85.9801 30.2067 86.0201 30.0933 86.1134 30C86.2201 29.9067 86.3334 29.86 86.4534 29.86H87.4134C87.5334 29.86 87.6334 29.8867 87.7134 29.94C87.7934 30.0067 87.8601 30.12 87.9134 30.28C88.0734 30.7067 88.3334 31.0733 88.6934 31.38C89.0668 31.7 89.6401 31.86 90.4134 31.86C91.4001 31.86 92.1268 31.6467 92.5934 31.22C93.0601 30.8067 93.2934 30.0667 93.2934 29V27.64C92.9468 28.08 92.5068 28.4333 91.9734 28.7C91.4401 28.9533 90.8068 29.08 90.0734 29.08C88.6601 29.08 87.6001 28.6333 86.8934 27.74C86.2001 26.8333 85.8334 25.6867 85.7934 24.3L85.7734 23.74L85.7934 23.2C85.8334 21.8267 86.2068 20.6867 86.9134 19.78C87.6201 18.86 88.6734 18.4 90.0734 18.4C91.4734 18.4 92.5668 18.9133 93.3534 19.94V19.08C93.3534 18.9467 93.3934 18.8333 93.4734 18.74C93.5668 18.6467 93.6801 18.6 93.8134 18.6H94.7334C94.8668 18.6 94.9801 18.6467 95.0734 18.74C95.1668 18.8333 95.2134 18.9467 95.2134 19.08V28.78C95.2134 31.86 93.6468 33.4 90.5134 33.4ZM90.4734 27.48C91.3801 27.48 92.0668 27.18 92.5334 26.58C93.0001 25.98 93.2534 25.2667 93.2934 24.44C93.3068 24.32 93.3134 24.0867 93.3134 23.74C93.3134 23.4067 93.3068 23.18 93.2934 23.06C93.2534 22.2333 93.0001 21.52 92.5334 20.92C92.0801 20.32 91.3934 20.02 90.4734 20.02C89.5268 20.02 88.8401 20.3133 88.4134 20.9C87.9868 21.4867 87.7534 22.26 87.7134 23.22L87.6934 23.74L87.7134 24.28C87.7534 25.2267 87.9868 26 88.4134 26.6C88.8401 27.1867 89.5268 27.48 90.4734 27.48ZM102.347 29.2C100.974 29.2 99.8737 28.78 99.047 27.94C98.2337 27.0867 97.787 25.9267 97.707 24.46L97.687 23.78L97.707 23.12C97.8004 21.68 98.2537 20.5333 99.067 19.68C99.8937 18.8267 100.98 18.4 102.327 18.4C103.807 18.4 104.954 18.8733 105.767 19.82C106.58 20.7533 106.987 22.02 106.987 23.62V23.96C106.987 24.0933 106.94 24.2067 106.847 24.3C106.767 24.38 106.66 24.42 106.527 24.42H99.607V24.6C99.647 25.4667 99.907 26.2067 100.387 26.82C100.88 27.42 101.527 27.72 102.327 27.72C102.94 27.72 103.44 27.6 103.827 27.36C104.227 27.1067 104.52 26.8467 104.707 26.58C104.827 26.42 104.914 26.3267 104.967 26.3C105.034 26.26 105.147 26.24 105.307 26.24H106.287C106.407 26.24 106.507 26.2733 106.587 26.34C106.667 26.4067 106.707 26.5 106.707 26.62C106.707 26.9133 106.52 27.2667 106.147 27.68C105.787 28.0933 105.274 28.4533 104.607 28.76C103.954 29.0533 103.2 29.2 102.347 29.2ZM105.087 23.04V22.98C105.087 22.06 104.834 21.3133 104.327 20.74C103.834 20.1533 103.167 19.86 102.327 19.86C101.487 19.86 100.82 20.1533 100.327 20.74C99.847 21.3133 99.607 22.06 99.607 22.98V23.04H105.087ZM109.838 29C109.705 29 109.592 28.96 109.498 28.88C109.418 28.7867 109.378 28.6733 109.378 28.54V19.08C109.378 18.9467 109.418 18.8333 109.498 18.74C109.592 18.6467 109.705 18.6 109.838 18.6H110.758C110.892 18.6 111.005 18.6467 111.098 18.74C111.192 18.8333 111.238 18.9467 111.238 19.08V19.96C111.785 19.0533 112.718 18.6 114.038 18.6H114.818C114.952 18.6 115.058 18.6467 115.138 18.74C115.232 18.82 115.278 18.9267 115.278 19.06V19.88C115.278 20.0133 115.232 20.12 115.138 20.2C115.058 20.28 114.952 20.32 114.818 20.32H113.618C112.898 20.32 112.332 20.5333 111.918 20.96C111.505 21.3733 111.298 21.94 111.298 22.66V28.54C111.298 28.6733 111.252 28.7867 111.158 28.88C111.065 28.96 110.952 29 110.818 29H109.838Z" fill="white"/>
<g clip-path="url(#clip0_1_169)">
<path d="M44 20.3359C44 18.6467 42.9108 17.2079 41.3982 16.6825C41.1658 11.4417 39.2092 7.41987 35.573 4.71723C32.2543 2.25065 27.6878 1 22 1C16.3122 1 11.7457 2.25065 8.42703 4.71731C4.79084 7.41987 2.83422 11.4418 2.60176 16.6826C1.08917 17.2079 0 18.6467 0 20.3359C0 21.3257 0.374172 22.2293 0.987852 22.9141C0.374172 23.5988 0 24.5024 0 25.4922C0 27.1918 1.10258 28.6378 2.6296 29.1551C3.18252 35.0454 8.18967 39.6719 14.2656 39.6719H29.7344C35.8103 39.6719 40.8175 35.0454 41.3704 29.1551C42.8974 28.6378 44 27.1918 44 25.4922C44 24.5024 43.6258 23.5988 43.0121 22.9141C43.6258 22.2293 44 21.3257 44 20.3359ZM22 3.57812C29.3933 3.57812 38.1513 5.85719 38.8034 16.4688H5.19655C5.84873 5.85719 14.6067 3.57812 22 3.57812ZM3.86719 19.0469H40.1328C40.8436 19.0469 41.4219 19.6251 41.4219 20.3359C41.4219 21.0467 40.8436 21.625 40.1328 21.625H3.86719C3.1564 21.625 2.57812 21.0467 2.57812 20.3359C2.57812 19.6251 3.1564 19.0469 3.86719 19.0469ZM29.7344 37.0938H14.2656C9.68456 37.0938 5.88302 33.7265 5.24958 29.3594H6.44531C7.30709 29.3594 7.57943 29.6525 8.12187 30.2366C8.78857 30.9545 9.70166 31.9375 11.6875 31.9375C13.6874 31.9375 14.5766 30.9444 15.226 30.2193C15.7387 29.6468 15.996 29.3594 16.8438 29.3594C17.6915 29.3594 17.9488 29.6468 18.4615 30.2193C19.1109 30.9444 20.0001 31.9375 22 31.9375C23.9999 31.9375 24.8891 30.9444 25.5385 30.2193C26.0512 29.6468 26.3085 29.3594 27.1562 29.3594C28.004 29.3594 28.2613 29.6468 28.774 30.2193C29.4234 30.9444 30.3126 31.9375 32.3125 31.9375C34.3124 31.9375 35.2016 30.9444 35.851 30.2193C36.3637 29.6468 36.621 29.3594 37.4688 29.3594H38.7504C38.117 33.7265 34.3154 37.0938 29.7344 37.0938ZM40.1328 26.7812H37.4688C35.4689 26.7812 34.5796 27.7743 33.9303 28.4995C33.4176 29.072 33.1603 29.3594 32.3125 29.3594C31.4647 29.3594 31.2074 29.072 30.6947 28.4995C30.0454 27.7743 29.1561 26.7812 27.1562 26.7812C25.1564 26.7812 24.2671 27.7743 23.6178 28.4995C23.1051 29.072 22.8478 29.3594 22 29.3594C21.1522 29.3594 20.8949 29.072 20.3822 28.4995C19.7329 27.7743 18.8436 26.7812 16.8438 26.7812C14.8439 26.7812 13.9546 27.7743 13.3053 28.4995C12.7926 29.072 12.5353 29.3594 11.6875 29.3594C10.8257 29.3594 10.5534 29.0662 10.0109 28.4821C9.34424 27.7643 8.43116 26.7812 6.44531 26.7812H3.86719C3.1564 26.7812 2.57812 26.203 2.57812 25.4922C2.57812 24.7814 3.1564 24.2031 3.86719 24.2031H40.1328C40.8436 24.2031 41.4219 24.7814 41.4219 25.4922C41.4219 26.203 40.8436 26.7812 40.1328 26.7812Z" fill="white"/>
<path d="M14.2656 13.8906C14.9776 13.8906 15.5547 13.3135 15.5547 12.6016C15.5547 11.8896 14.9776 11.3125 14.2656 11.3125C13.5537 11.3125 12.9766 11.8896 12.9766 12.6016C12.9766 13.3135 13.5537 13.8906 14.2656 13.8906Z" fill="white"/>
<path d="M29.7344 13.8906C30.4463 13.8906 31.0234 13.3135 31.0234 12.6016C31.0234 11.8896 30.4463 11.3125 29.7344 11.3125C29.0224 11.3125 28.4453 11.8896 28.4453 12.6016C28.4453 13.3135 29.0224 13.8906 29.7344 13.8906Z" fill="white"/>
<path d="M24.5781 11.3125C25.2901 11.3125 25.8672 10.7354 25.8672 10.0234C25.8672 9.31151 25.2901 8.73438 24.5781 8.73438C23.8662 8.73438 23.2891 9.31151 23.2891 10.0234C23.2891 10.7354 23.8662 11.3125 24.5781 11.3125Z" fill="white"/>
<path d="M19.4219 8.73438C20.1338 8.73438 20.7109 8.15724 20.7109 7.44531C20.7109 6.73338 20.1338 6.15625 19.4219 6.15625C18.7099 6.15625 18.1328 6.73338 18.1328 7.44531C18.1328 8.15724 18.7099 8.73438 19.4219 8.73438Z" fill="white"/>
</g>
<defs>
<clipPath id="clip0_1_169">
<rect width="44" height="44" fill="white"/>
</clipPath>
</defs>
</svg>
