<svg width="210" height="70" viewBox="0 0 210 70" fill="none" xmlns="http://www.w3.org/2000/svg">
<rect width="210" height="70" rx="8" fill="white"/>
<path d="M93.24 42.2C92.1333 42.2 91.1733 42.0267 90.36 41.68C89.56 41.3333 88.9467 40.88 88.52 40.32C88.0933 39.7467 87.8667 39.1333 87.84 38.48C87.84 38.3733 87.88 38.28 87.96 38.2C88.0533 38.1067 88.16 38.06 88.28 38.06H89.3C89.5533 38.06 89.7267 38.1933 89.82 38.46C89.94 39.02 90.28 39.5 90.84 39.9C91.4133 40.3 92.2133 40.5 93.24 40.5C94.3467 40.5 95.18 40.3067 95.74 39.92C96.3 39.52 96.58 38.9667 96.58 38.26C96.58 37.8067 96.44 37.44 96.16 37.16C95.8933 36.88 95.4933 36.6333 94.96 36.42C94.4267 36.2067 93.6267 35.94 92.56 35.62C91.52 35.3267 90.6933 35.0133 90.08 34.68C89.4667 34.3467 89.0067 33.9333 88.7 33.44C88.3933 32.9467 88.24 32.3267 88.24 31.58C88.24 30.86 88.4333 30.2133 88.82 29.64C89.22 29.0667 89.7867 28.62 90.52 28.3C91.2533 27.9667 92.1267 27.8 93.14 27.8C94.18 27.8 95.0733 27.9867 95.82 28.36C96.5667 28.72 97.1333 29.18 97.52 29.74C97.9067 30.3 98.1133 30.86 98.14 31.42C98.14 31.5267 98.1 31.62 98.02 31.7C97.9533 31.78 97.8533 31.82 97.72 31.82H96.66C96.38 31.82 96.2067 31.6933 96.14 31.44C96.06 30.88 95.7467 30.42 95.2 30.06C94.6533 29.6867 93.9667 29.5 93.14 29.5C92.2333 29.5 91.52 29.6733 91 30.02C90.48 30.3667 90.22 30.88 90.22 31.56C90.22 32.0133 90.34 32.3867 90.58 32.68C90.8333 32.9733 91.2133 33.2333 91.72 33.46C92.2267 33.6733 92.9667 33.92 93.94 34.2C95.0733 34.5067 95.9667 34.8267 96.62 35.16C97.2733 35.48 97.76 35.8867 98.08 36.38C98.4 36.86 98.56 37.4733 98.56 38.22C98.56 39.46 98.08 40.4333 97.12 41.14C96.16 41.8467 94.8667 42.2 93.24 42.2ZM105.081 42.2C103.708 42.2 102.608 41.78 101.781 40.94C100.968 40.0867 100.521 38.9267 100.441 37.46L100.421 36.78L100.441 36.12C100.535 34.68 100.988 33.5333 101.801 32.68C102.628 31.8267 103.715 31.4 105.061 31.4C106.541 31.4 107.688 31.8733 108.501 32.82C109.315 33.7533 109.721 35.02 109.721 36.62V36.96C109.721 37.0933 109.675 37.2067 109.581 37.3C109.501 37.38 109.395 37.42 109.261 37.42H102.341V37.6C102.381 38.4667 102.641 39.2067 103.121 39.82C103.615 40.42 104.261 40.72 105.061 40.72C105.675 40.72 106.175 40.6 106.561 40.36C106.961 40.1067 107.255 39.8467 107.441 39.58C107.561 39.42 107.648 39.3267 107.701 39.3C107.768 39.26 107.881 39.24 108.041 39.24H109.021C109.141 39.24 109.241 39.2733 109.321 39.34C109.401 39.4067 109.441 39.5 109.441 39.62C109.441 39.9133 109.255 40.2667 108.881 40.68C108.521 41.0933 108.008 41.4533 107.341 41.76C106.688 42.0533 105.935 42.2 105.081 42.2ZM107.821 36.04V35.98C107.821 35.06 107.568 34.3133 107.061 33.74C106.568 33.1533 105.901 32.86 105.061 32.86C104.221 32.86 103.555 33.1533 103.061 33.74C102.581 34.3133 102.341 35.06 102.341 35.98V36.04H107.821ZM116.114 42C114.008 42 112.954 40.8267 112.954 38.48V33.2H111.394C111.261 33.2 111.148 33.16 111.054 33.08C110.974 32.9867 110.934 32.8733 110.934 32.74V32.06C110.934 31.9267 110.974 31.82 111.054 31.74C111.148 31.6467 111.261 31.6 111.394 31.6H112.954V28.26C112.954 28.1267 112.994 28.02 113.074 27.94C113.168 27.8467 113.281 27.8 113.414 27.8H114.354C114.488 27.8 114.594 27.8467 114.674 27.94C114.768 28.02 114.814 28.1267 114.814 28.26V31.6H117.294C117.428 31.6 117.534 31.6467 117.614 31.74C117.708 31.82 117.754 31.9267 117.754 32.06V32.74C117.754 32.8733 117.708 32.9867 117.614 33.08C117.534 33.16 117.428 33.2 117.294 33.2H114.814V38.34C114.814 39.0067 114.928 39.5133 115.154 39.86C115.381 40.1933 115.754 40.36 116.274 40.36H117.494C117.628 40.36 117.734 40.4067 117.814 40.5C117.908 40.58 117.954 40.6867 117.954 40.82V41.54C117.954 41.6733 117.908 41.7867 117.814 41.88C117.734 41.96 117.628 42 117.494 42H116.114ZM125.489 42C125.356 42 125.242 41.96 125.149 41.88C125.069 41.7867 125.029 41.6733 125.029 41.54V28.48C125.029 28.3333 125.069 28.22 125.149 28.14C125.242 28.0467 125.356 28 125.489 28H126.489C126.702 28 126.876 28.1067 127.009 28.32L131.229 36.4L135.489 28.32C135.516 28.24 135.569 28.1667 135.649 28.1C135.742 28.0333 135.856 28 135.989 28H136.969C137.116 28 137.229 28.0467 137.309 28.14C137.402 28.22 137.449 28.3333 137.449 28.48V41.54C137.449 41.6733 137.402 41.7867 137.309 41.88C137.216 41.96 137.102 42 136.969 42H135.989C135.856 42 135.742 41.96 135.649 41.88C135.569 41.7867 135.529 41.6733 135.529 41.54V31.7L132.189 38.22C132.056 38.5 131.842 38.64 131.549 38.64H130.929C130.636 38.64 130.422 38.5 130.289 38.22L126.929 31.7V41.54C126.929 41.6733 126.882 41.7867 126.789 41.88C126.709 41.96 126.602 42 126.469 42H125.489ZM144.808 42.2C143.435 42.2 142.335 41.78 141.508 40.94C140.695 40.0867 140.248 38.9267 140.168 37.46L140.148 36.78L140.168 36.12C140.261 34.68 140.715 33.5333 141.528 32.68C142.355 31.8267 143.441 31.4 144.788 31.4C146.268 31.4 147.415 31.8733 148.228 32.82C149.041 33.7533 149.448 35.02 149.448 36.62V36.96C149.448 37.0933 149.401 37.2067 149.308 37.3C149.228 37.38 149.121 37.42 148.988 37.42H142.068V37.6C142.108 38.4667 142.368 39.2067 142.848 39.82C143.341 40.42 143.988 40.72 144.788 40.72C145.401 40.72 145.901 40.6 146.288 40.36C146.688 40.1067 146.981 39.8467 147.168 39.58C147.288 39.42 147.375 39.3267 147.428 39.3C147.495 39.26 147.608 39.24 147.768 39.24H148.748C148.868 39.24 148.968 39.2733 149.048 39.34C149.128 39.4067 149.168 39.5 149.168 39.62C149.168 39.9133 148.981 40.2667 148.608 40.68C148.248 41.0933 147.735 41.4533 147.068 41.76C146.415 42.0533 145.661 42.2 144.808 42.2ZM147.548 36.04V35.98C147.548 35.06 147.295 34.3133 146.788 33.74C146.295 33.1533 145.628 32.86 144.788 32.86C143.948 32.86 143.281 33.1533 142.788 33.74C142.308 34.3133 142.068 35.06 142.068 35.98V36.04H147.548ZM152.299 42C152.166 42 152.053 41.96 151.959 41.88C151.879 41.7867 151.839 41.6733 151.839 41.54V32.06C151.839 31.9267 151.879 31.82 151.959 31.74C152.053 31.6467 152.166 31.6 152.299 31.6H153.239C153.373 31.6 153.479 31.6467 153.559 31.74C153.653 31.82 153.699 31.9267 153.699 32.06V32.94C154.086 32.4467 154.539 32.0667 155.059 31.8C155.593 31.5333 156.253 31.4 157.039 31.4C158.319 31.4 159.313 31.8133 160.019 32.64C160.739 33.4533 161.099 34.54 161.099 35.9V41.54C161.099 41.6733 161.053 41.7867 160.959 41.88C160.879 41.96 160.773 42 160.639 42H159.639C159.506 42 159.393 41.96 159.299 41.88C159.219 41.7867 159.179 41.6733 159.179 41.54V36C159.179 35.0533 158.946 34.32 158.479 33.8C158.026 33.28 157.366 33.02 156.499 33.02C155.659 33.02 154.993 33.2867 154.499 33.82C154.006 34.34 153.759 35.0667 153.759 36V41.54C153.759 41.6733 153.713 41.7867 153.619 41.88C153.539 41.96 153.433 42 153.299 42H152.299ZM167.848 42.2C166.582 42.2 165.602 41.7933 164.908 40.98C164.215 40.1533 163.868 39.06 163.868 37.7V32.06C163.868 31.9267 163.908 31.82 163.988 31.74C164.082 31.6467 164.195 31.6 164.328 31.6H165.328C165.462 31.6 165.568 31.6467 165.648 31.74C165.742 31.82 165.788 31.9267 165.788 32.06V37.6C165.788 39.5867 166.655 40.58 168.388 40.58C169.228 40.58 169.895 40.32 170.388 39.8C170.882 39.2667 171.128 38.5333 171.128 37.6V32.06C171.128 31.9267 171.168 31.82 171.248 31.74C171.342 31.6467 171.455 31.6 171.588 31.6H172.588C172.722 31.6 172.828 31.6467 172.908 31.74C172.988 31.82 173.028 31.9267 173.028 32.06V41.54C173.028 41.6733 172.988 41.7867 172.908 41.88C172.828 41.96 172.722 42 172.588 42H171.648C171.515 42 171.402 41.96 171.308 41.88C171.228 41.7867 171.188 41.6733 171.188 41.54V40.66C170.815 41.1667 170.362 41.5533 169.828 41.82C169.295 42.0733 168.635 42.2 167.848 42.2Z" fill="#363853"/>
<g clip-path="url(#clip0_1_221)">
<path d="M65.158 29.3138L64.6872 27.7616C64.0892 25.9984 62.1775 25.0547 60.4173 25.6538C59.4271 25.9908 58.6495 26.7697 58.3131 27.7616L57.8423 29.3138C57.4461 30.6228 57.363 32.0069 57.5996 33.354C57.8154 34.4882 58.5342 35.4626 59.5532 36.0022L59.0259 47.8092C58.9553 48.4682 59.1687 49.1261 59.6126 49.6177C60.5671 50.6636 62.1874 50.7363 63.2315 49.7802C63.2879 49.7285 63.342 49.6743 63.3936 49.6177C63.8276 49.1401 64.0406 48.5014 63.9803 47.8584L63.4501 36.0007C64.4677 35.4609 65.1853 34.4871 65.4008 33.354C65.6373 32.0069 65.5542 30.6228 65.158 29.3138ZM63.9561 33.0984C63.7973 33.9132 63.2176 34.5818 62.4344 34.8533C62.1372 34.9652 61.9457 35.2561 61.96 35.5739L62.5173 47.9745C62.543 48.2177 62.4628 48.4602 62.2973 48.64C61.8557 49.0779 61.1446 49.0779 60.703 48.64C60.5292 48.4457 60.4503 48.1842 60.4874 47.926L61.0404 35.5739C61.0547 35.2561 60.8632 34.9652 60.5659 34.8533C59.7827 34.5818 59.203 33.9132 59.0442 33.0984C58.8481 31.9799 58.9172 30.831 59.2459 29.7442L59.7167 28.1913C60.081 27.2047 61.1747 26.7007 62.1598 27.0656C62.6806 27.2585 63.091 27.6698 63.2836 28.1913L63.7544 29.7442C64.0828 30.8311 64.1519 31.9799 63.9561 33.0984Z" fill="#363853"/>
<path d="M53.8 25.4778C53.395 25.4778 53.0667 25.8067 53.0667 26.2124V32.5195L51.0815 34.508C50.9347 34.6546 50.8566 34.8567 50.8667 35.0641L51.5083 47.9194C51.5236 48.1966 51.4232 48.4678 51.2311 48.6679C50.8297 49.0736 50.176 49.0765 49.7709 48.6744C49.7687 48.6722 49.7666 48.67 49.7645 48.6679C49.5723 48.4678 49.472 48.1966 49.4873 47.9194L50.1333 35.0641C50.1436 34.8568 50.0658 34.6548 49.9192 34.508L47.9333 32.5195V26.2124C47.9333 25.8067 47.605 25.4778 47.2 25.4778C46.795 25.4778 46.4667 25.8067 46.4667 26.2124V32.8236C46.4667 33.0185 46.544 33.2053 46.6815 33.343L48.6513 35.3168L48.0257 47.8481C47.9592 49.2169 49.013 50.3807 50.3795 50.4474C51.7459 50.514 52.9077 49.4584 52.9743 48.0896C52.9782 48.0092 52.9782 47.9287 52.9743 47.8482L52.3487 35.3169L54.3185 33.3431C54.456 33.2054 54.5333 33.0186 54.5333 32.8237V26.2125C54.5333 25.8067 54.205 25.4778 53.8 25.4778Z" fill="#363853"/>
<path d="M49.4 25.4778C48.995 25.4778 48.6667 25.8067 48.6667 26.2124V32.0891C48.6667 32.4947 48.995 32.8236 49.4 32.8236C49.805 32.8236 50.1333 32.4947 50.1333 32.0891V26.2124C50.1333 25.8067 49.805 25.4778 49.4 25.4778Z" fill="#363853"/>
<path d="M51.6 25.4778C51.195 25.4778 50.8667 25.8067 50.8667 26.2124V32.0891C50.8667 32.4947 51.195 32.8236 51.6 32.8236C52.005 32.8236 52.3333 32.4947 52.3333 32.0891V26.2124C52.3333 25.8067 52.005 25.4778 51.6 25.4778Z" fill="#363853"/>
<path d="M56 14.459C43.8498 14.459 34 24.3256 34 36.4966C34 48.6675 43.8498 58.5341 56 58.5341C68.1502 58.5341 78 48.6675 78 36.4966C77.9863 24.3313 68.1446 14.4728 56 14.459ZM56 57.065C44.6597 57.065 35.4667 47.8562 35.4667 36.4966C35.4667 25.1369 44.6597 15.9282 56 15.9282C67.3403 15.9282 76.5333 25.1369 76.5333 36.4966C76.5204 47.8508 67.3349 57.052 56 57.065Z" fill="#363853"/>
<path d="M58.3804 50.2862C58.3411 49.8822 57.9824 49.5867 57.5792 49.6261C57.5698 49.627 57.5604 49.6281 57.5509 49.6294L57.5539 49.6287C56.5214 49.7488 55.4784 49.7488 54.446 49.6287C54.0436 49.5813 53.6792 49.8699 53.632 50.2732C53.5848 50.6765 53.8727 51.0417 54.2751 51.089C55.4201 51.2231 56.5768 51.2231 57.7218 51.089C58.1248 51.0497 58.4197 50.6902 58.3804 50.2862Z" fill="#363853"/>
<path d="M67.2202 27.0307C66.9599 26.7199 66.4974 26.6792 66.1871 26.94C66.1861 26.9408 66.1851 26.9417 66.184 26.9426C65.8744 27.2041 65.835 27.6674 66.096 27.9776C70.5175 33.2354 70.1793 41.01 65.3179 45.8626C65.031 46.149 65.0302 46.6142 65.3161 46.9016C65.602 47.1891 66.0665 47.1899 66.3534 46.9035C71.756 41.5123 72.1327 32.8733 67.2202 27.0307Z" fill="#363853"/>
<path d="M51.0859 24.1696C51.0854 24.1696 51.085 24.1686 51.0845 24.1686C51.0838 24.1686 51.083 24.1696 51.0822 24.1696H51.0859Z" fill="#363853"/>
<path d="M59.4592 22.2154C56.5932 21.5274 53.5874 21.7123 50.8271 22.7465C50.4479 22.8893 50.2563 23.313 50.3988 23.6927C50.5062 23.9789 50.7794 24.1683 51.0846 24.1686C51.1723 24.1681 51.2592 24.1521 51.3411 24.1209C53.827 23.1898 56.5337 23.0235 59.1145 23.6435C59.5082 23.7388 59.9045 23.4964 59.9996 23.1021C60.0948 22.7077 59.8529 22.3107 59.4592 22.2154Z" fill="#363853"/>
<path d="M46.6492 45.8258C44.1771 43.3537 42.7915 39.9958 42.7999 36.4966C42.7927 33.7009 43.6767 30.976 45.3233 28.7188C45.5667 28.3945 45.5015 27.934 45.1778 27.6902C44.854 27.4464 44.3943 27.5117 44.1509 27.836C44.1466 27.8418 44.1424 27.8476 44.1383 27.8534C39.8984 33.6923 40.5223 41.7517 45.6101 46.866C45.8968 47.1534 46.3619 47.1536 46.6488 46.8663C46.9358 46.5791 46.9359 46.1132 46.6492 45.8258Z" fill="#363853"/>
</g>
<defs>
<clipPath id="clip0_1_221">
<rect width="44" height="44.0751" fill="white" transform="translate(34 14.459)"/>
</clipPath>
</defs>
</svg>
