<svg width="20" height="19" viewBox="0 0 20 19" fill="none" xmlns="http://www.w3.org/2000/svg">
<path d="M0.812378 0.91333L2.81297 1.24888L3.7392 11.9427C3.81326 12.816 4.56637 13.4862 5.47048 13.4834H15.963C16.8257 13.4853 17.5577 12.8701 17.6798 12.0424L18.5926 5.92981C18.6946 5.24659 18.205 4.61277 17.5009 4.51397C17.4394 4.50558 3.13422 4.50092 3.13422 4.50092" stroke="#363853" stroke-width="1.5" stroke-linecap="round" stroke-linejoin="round"/>
<path d="M11.7531 7.94602H14.4201" stroke="#363853" stroke-width="1.5" stroke-linecap="round" stroke-linejoin="round"/>
<path fill-rule="evenodd" clip-rule="evenodd" d="M5.04848 16.7146C5.33795 16.7146 5.57165 16.9421 5.57165 17.2219C5.57165 17.5026 5.33795 17.7302 5.04848 17.7302C4.759 17.7302 4.5253 17.5026 4.5253 17.2219C4.5253 16.9421 4.759 16.7146 5.04848 16.7146Z" fill="#363853" stroke="#363853" stroke-width="1.5" stroke-linecap="round" stroke-linejoin="round"/>
<path fill-rule="evenodd" clip-rule="evenodd" d="M15.8981 16.7146C16.1876 16.7146 16.4223 16.9421 16.4223 17.2219C16.4223 17.5026 16.1876 17.7302 15.8981 17.7302C15.6086 17.7302 15.3749 17.5026 15.3749 17.2219C15.3749 16.9421 15.6086 16.7146 15.8981 16.7146Z" fill="#363853" stroke="#363853" stroke-width="1.5" stroke-linecap="round" stroke-linejoin="round"/>
</svg>
