<svg width="144" height="182" viewBox="0 0 144 182" fill="none" xmlns="http://www.w3.org/2000/svg">
<path d="M15.2415 154.543C32.2715 156.235 69.7576 143.13 74.0942 121.495C79.5149 94.4518 56.5145 72.3886 31.9716 86.3002C13.5347 96.7508 20.1818 117.99 23.9135 124.354C25.9186 127.774 41.2771 145.419 69.8642 139.848C97.9613 134.373 110.517 113.9 114.718 102.245C118.919 90.589 119.584 74.9791 113.563 59.8708" stroke="url(#paint0_linear_1_68)" stroke-width="2.5" stroke-linecap="round" stroke-dasharray="8 9"/>
<path d="M94.2255 21.7725C93.2139 22.2936 92.5888 23.3134 92.5845 24.429L92.4601 50.4384C92.4417 51.6115 93.0956 52.6331 94.1582 53.1608C95.241 53.6991 96.9227 53.3753 97.8244 52.5832L104.821 46.4329C105.54 45.8025 105.72 44.7756 105.255 43.9519L99.0012 32.8451C98.6695 32.2812 98.8865 31.566 99.4803 31.2658C100.056 30.9603 100.78 31.1665 101.11 31.73L107.359 42.8517C107.824 43.6769 108.808 44.0869 109.746 43.844L118.899 41.4758C119.983 41.2017 120.787 40.4273 121.095 39.4142C121.131 39.295 121.172 39.1609 121.191 39.0369C121.391 37.8314 120.855 36.675 119.806 36.0039L97.4098 21.9026C96.4592 21.2919 95.2356 21.2509 94.2255 21.7725Z" fill="url(#paint1_linear_1_68)"/>
<path opacity="0.4" fill-rule="evenodd" clip-rule="evenodd" d="M106.692 55.9791C106.605 56.2651 106.406 56.5192 106.114 56.6724C105.531 56.9806 104.802 56.773 104.484 56.2081L103.001 53.576C102.684 53.0116 102.899 52.3039 103.48 51.9952C104.063 51.6885 104.793 51.8965 105.112 52.4599L106.593 55.093C106.753 55.375 106.779 55.693 106.692 55.9791ZM111.313 50.3631C111.226 50.6492 111.027 50.9033 110.735 51.0564C110.152 51.3646 109.423 51.157 109.105 50.5922L107.622 47.9601C107.305 47.3957 107.52 46.6879 108.101 46.3793C108.684 46.0725 109.414 46.2806 109.733 46.844L111.214 49.4771C111.374 49.759 111.399 50.077 111.313 50.3631ZM118.494 51.042C118.786 50.8888 118.985 50.6347 119.072 50.3487C119.158 50.0626 119.133 49.7446 118.973 49.4626L117.492 46.8295C117.173 46.2661 116.443 46.0581 115.86 46.3648C115.279 46.6735 115.064 47.3812 115.381 47.9457L116.864 50.5777C117.182 51.1426 117.911 51.3502 118.494 51.042Z" fill="url(#paint2_linear_1_68)"/>
<defs>
<linearGradient id="paint0_linear_1_68" x1="25.8108" y1="87.308" x2="104.901" y2="120.502" gradientUnits="userSpaceOnUse">
<stop stop-color="#F99462"/>
<stop offset="1" stop-color="#F99462" stop-opacity="0.65"/>
</linearGradient>
<linearGradient id="paint1_linear_1_68" x1="98.8112" y1="54.5258" x2="107.262" y2="25.3459" gradientUnits="userSpaceOnUse">
<stop stop-color="#F99462"/>
<stop offset="1" stop-color="#F99462" stop-opacity="0.65"/>
</linearGradient>
<linearGradient id="paint2_linear_1_68" x1="108.588" y1="57.7328" x2="112.185" y2="45.2931" gradientUnits="userSpaceOnUse">
<stop stop-color="#F99462"/>
<stop offset="1" stop-color="#F99462" stop-opacity="0.65"/>
</linearGradient>
</defs>
</svg>
